<svg xmlns="http://www.w3.org/2000/svg" width="863.495" height="231.389" xmlns:v="https://vecta.io/nano"><path fill="#888" d="M83.621 230.418c-47.322-5.496-73.273-31.125-81.895-80.878-2.07-11.945-2.343-48.326-.462-61.512C8.404 37.986 30.583 10.763 71.447 1.883c11.693-2.541 44.939-2.504 59.5.067 11.464 2.024 23.93 5.875 27.325 8.441l2.325 1.758-4.2 17.939c-2.31 9.867-4.763 18.543-5.451 19.28-1.041 1.116-2.988.892-11.624-1.334-12.673-3.267-36.83-4.539-48.573-2.558-20.423 3.447-33.643 16.452-39.345 38.71-4.491 17.528-4.476 47.17.034 64.802 3.651 14.277 11.762 26.367 21.535 32.104 7.538 4.424 15.459 5.735 31.563 5.221 8.023-.256 15.11-.789 15.75-1.184.827-.511 1.163-7.063 1.163-22.66v-21.941h-14.965c-13.772 0-15.047-.154-16-1.934-.6-1.122-1.035-9.282-1.035-19.429 0-14.571.263-17.757 1.571-19.066 1.371-1.371 6.222-1.571 38.066-1.571 23.244 0 37.197.376 38.429 1.035 1.877 1.005 1.934 2.699 1.934 57.522v56.487l-4.707 2.985c-18.143 11.506-51.831 17.262-81.119 13.86zm519.826.461c-13.832-1.856-23.703-6.001-30.519-12.816-5.379-5.379-8.044-10.505-10.543-20.275-1.804-7.054-1.938-11.443-1.938-63.312 0-49.899.166-55.797 1.582-56.34 2.283-.876 42.694-.719 44.094.171.868.552 1.26 13.948 1.5 51.235.309 48.138.418 50.673 2.324 54.474 1.1 2.193 3.575 5.046 5.5 6.341 3.19 2.145 4.342 2.321 13 1.982 8.12-.318 10.481-.832 16.25-3.538l6.75-3.166v-52.853c0-39.774.297-53.149 1.2-54.053 1.699-1.699 42.901-1.699 44.6 0 1.736 1.736 1.736 145.864 0 147.6-.817.817-5.584 1.2-14.929 1.2-15.429 0-16.871-.562-16.871-6.571 0-1.886-.252-3.429-.559-3.429s-4.245 1.776-8.75 3.947c-12.959 6.245-24.25 9.095-37.691 9.514-6.325.197-13.075.147-15-.111zm192.5.043c-14.157-2.082-28.747-7.293-36.08-12.886-3.55-2.708-4.404-2.067-4.435 3.325-.031 5.425-.661 5.642-17.307 5.987-13.218.273-15.631.086-17.038-1.321-1.499-1.499-1.64-10.798-1.64-108.497l1.571-108.429c1.326-1.326 4.768-1.571 22.066-1.571 12.215 0 21.276.418 22.429 1.035 1.858.994 1.934 2.472 1.934 37.5l.376 36.465c.207 0 2.968-1.146 6.136-2.548 13.939-6.165 35.692-8.348 49.028-4.921 31.12 7.997 44.739 40.538 39.362 94.045-3.551 35.334-15.532 53.923-38.635 59.943-5.927 1.544-22.432 2.658-27.767 1.874zm8.538-40.643c3.536-1.783 5.027-3.391 7.185-7.75 3.517-7.102 5.199-20.628 4.476-36-.858-18.253-4.734-27.845-13.033-32.262-7.449-3.964-22.932-2.629-33.916 2.923l-2.75 1.39v33.851 33.851l4.945 2.127c7.083 3.047 11.477 3.905 20.593 4.018 6.482.081 8.902-.335 12.5-2.15zm-489.636 38.764c-7.833-1.704-15.429-5.577-20.985-10.698-5.263-4.851-7.714-8.641-10.65-16.465-2.086-5.558-2.223-7.83-2.731-45.351l-.535-39.5-12-.5-12-.5-.278-14.922c-.16-8.572.13-15.33.679-15.879.526-.526 6.051-2.152 12.278-3.612l11.321-2.655.27-21.419c.197-15.604.604-21.631 1.5-22.2 1.438-.914 40.814-1.1 43.148-.205 1.372.527 1.582 3.369 1.582 21.476V77.48l16.75.274 16.75.274v19 19l-16.5.5-16.5.5v32.678c0 37.145-.222 36.091 8.559 40.605 3.808 1.957 5.818 2.261 14.09 2.128 5.307-.085 10.144.152 10.75.526 1.705 1.054 1.498 31.988-.223 33.417-4.516 3.748-32.67 5.402-45.274 2.66zm68.348-2.594c-1.65-.961-1.75-7.213-1.75-108.934 0-105.669.04-107.937 1.934-108.95 2.577-1.379 40.555-1.379 43.131 0 1.863.997 1.934 2.511 1.934 41v39.965h32 32V49.563c0-38.489.072-40.003 1.934-41 2.453-1.313 41.998-1.363 44.066-.056 1.318.833 1.5 14.044 1.5 109.021l-1.5 109.021c-2.067 1.307-41.613 1.256-44.066-.056-1.87-1.001-1.934-2.585-1.934-47.5v-46.465h-32-32v46.465c0 44.915-.065 46.499-1.934 47.5-2.551 1.365-40.963 1.325-43.316-.045zm-189.55-1.12c-1.736-1.736-1.736-144.864 0-146.6.86-.86 7.37-1.2 22.965-1.2 20.495 0 21.825.113 22.8 1.934.686 1.281 1.035 25.79 1.035 72.566l-1.035 72.566c-.975 1.821-2.305 1.934-22.8 1.934-15.595 0-22.105-.34-22.965-1.2zm15.794-160.734c-10.549-3.209-17.729-12.06-18.729-23.089-2.291-25.262 28.762-38.523 45.549-19.452 4.483 5.093 6.187 10.016 6.187 17.874 0 10.211-4.833 17.863-14.255 22.572-6.205 3.101-12.964 3.856-18.751 2.096z"/></svg>