<?xml version="1.0" encoding="utf-8"?>
<svg version="1.1" baseProfile="full"  width="264" height="264" viewBox="0 0 264 264"
		 xmlns="http://www.w3.org/2000/svg" xmlns:xlink="http://www.w3.org/1999/xlink" xmlns:ev="http://www.w3.org/2001/xml-events">
<desc></desc>
<rect width="264" height="264" fill="#ffffff" cx="0" cy="0" />
<defs>
<rect id="p" width="8" height="8" />
</defs>
<g fill="#000000">
<use x="32" y="32" xlink:href="#p" />
<use x="32" y="40" xlink:href="#p" />
<use x="32" y="48" xlink:href="#p" />
<use x="32" y="56" xlink:href="#p" />
<use x="32" y="64" xlink:href="#p" />
<use x="32" y="72" xlink:href="#p" />
<use x="32" y="80" xlink:href="#p" />
<use x="32" y="96" xlink:href="#p" />
<use x="32" y="128" xlink:href="#p" />
<use x="32" y="176" xlink:href="#p" />
<use x="32" y="184" xlink:href="#p" />
<use x="32" y="192" xlink:href="#p" />
<use x="32" y="200" xlink:href="#p" />
<use x="32" y="208" xlink:href="#p" />
<use x="32" y="216" xlink:href="#p" />
<use x="32" y="224" xlink:href="#p" />
<use x="40" y="32" xlink:href="#p" />
<use x="40" y="80" xlink:href="#p" />
<use x="40" y="96" xlink:href="#p" />
<use x="40" y="128" xlink:href="#p" />
<use x="40" y="152" xlink:href="#p" />
<use x="40" y="160" xlink:href="#p" />
<use x="40" y="176" xlink:href="#p" />
<use x="40" y="224" xlink:href="#p" />
<use x="48" y="32" xlink:href="#p" />
<use x="48" y="48" xlink:href="#p" />
<use x="48" y="56" xlink:href="#p" />
<use x="48" y="64" xlink:href="#p" />
<use x="48" y="80" xlink:href="#p" />
<use x="48" y="112" xlink:href="#p" />
<use x="48" y="120" xlink:href="#p" />
<use x="48" y="128" xlink:href="#p" />
<use x="48" y="144" xlink:href="#p" />
<use x="48" y="152" xlink:href="#p" />
<use x="48" y="160" xlink:href="#p" />
<use x="48" y="176" xlink:href="#p" />
<use x="48" y="192" xlink:href="#p" />
<use x="48" y="200" xlink:href="#p" />
<use x="48" y="208" xlink:href="#p" />
<use x="48" y="224" xlink:href="#p" />
<use x="56" y="32" xlink:href="#p" />
<use x="56" y="48" xlink:href="#p" />
<use x="56" y="56" xlink:href="#p" />
<use x="56" y="64" xlink:href="#p" />
<use x="56" y="80" xlink:href="#p" />
<use x="56" y="96" xlink:href="#p" />
<use x="56" y="104" xlink:href="#p" />
<use x="56" y="112" xlink:href="#p" />
<use x="56" y="120" xlink:href="#p" />
<use x="56" y="128" xlink:href="#p" />
<use x="56" y="176" xlink:href="#p" />
<use x="56" y="192" xlink:href="#p" />
<use x="56" y="200" xlink:href="#p" />
<use x="56" y="208" xlink:href="#p" />
<use x="56" y="224" xlink:href="#p" />
<use x="64" y="32" xlink:href="#p" />
<use x="64" y="48" xlink:href="#p" />
<use x="64" y="56" xlink:href="#p" />
<use x="64" y="64" xlink:href="#p" />
<use x="64" y="80" xlink:href="#p" />
<use x="64" y="96" xlink:href="#p" />
<use x="64" y="112" xlink:href="#p" />
<use x="64" y="120" xlink:href="#p" />
<use x="64" y="160" xlink:href="#p" />
<use x="64" y="176" xlink:href="#p" />
<use x="64" y="192" xlink:href="#p" />
<use x="64" y="200" xlink:href="#p" />
<use x="64" y="208" xlink:href="#p" />
<use x="64" y="224" xlink:href="#p" />
<use x="72" y="32" xlink:href="#p" />
<use x="72" y="80" xlink:href="#p" />
<use x="72" y="112" xlink:href="#p" />
<use x="72" y="136" xlink:href="#p" />
<use x="72" y="160" xlink:href="#p" />
<use x="72" y="176" xlink:href="#p" />
<use x="72" y="224" xlink:href="#p" />
<use x="80" y="32" xlink:href="#p" />
<use x="80" y="40" xlink:href="#p" />
<use x="80" y="48" xlink:href="#p" />
<use x="80" y="56" xlink:href="#p" />
<use x="80" y="64" xlink:href="#p" />
<use x="80" y="72" xlink:href="#p" />
<use x="80" y="80" xlink:href="#p" />
<use x="80" y="96" xlink:href="#p" />
<use x="80" y="112" xlink:href="#p" />
<use x="80" y="128" xlink:href="#p" />
<use x="80" y="144" xlink:href="#p" />
<use x="80" y="160" xlink:href="#p" />
<use x="80" y="176" xlink:href="#p" />
<use x="80" y="184" xlink:href="#p" />
<use x="80" y="192" xlink:href="#p" />
<use x="80" y="200" xlink:href="#p" />
<use x="80" y="208" xlink:href="#p" />
<use x="80" y="216" xlink:href="#p" />
<use x="80" y="224" xlink:href="#p" />
<use x="88" y="104" xlink:href="#p" />
<use x="88" y="112" xlink:href="#p" />
<use x="88" y="136" xlink:href="#p" />
<use x="88" y="144" xlink:href="#p" />
<use x="88" y="152" xlink:href="#p" />
<use x="96" y="32" xlink:href="#p" />
<use x="96" y="80" xlink:href="#p" />
<use x="96" y="88" xlink:href="#p" />
<use x="96" y="112" xlink:href="#p" />
<use x="96" y="120" xlink:href="#p" />
<use x="96" y="128" xlink:href="#p" />
<use x="96" y="136" xlink:href="#p" />
<use x="96" y="144" xlink:href="#p" />
<use x="96" y="160" xlink:href="#p" />
<use x="96" y="168" xlink:href="#p" />
<use x="96" y="192" xlink:href="#p" />
<use x="96" y="200" xlink:href="#p" />
<use x="96" y="216" xlink:href="#p" />
<use x="96" y="224" xlink:href="#p" />
<use x="104" y="32" xlink:href="#p" />
<use x="104" y="48" xlink:href="#p" />
<use x="104" y="72" xlink:href="#p" />
<use x="104" y="88" xlink:href="#p" />
<use x="104" y="96" xlink:href="#p" />
<use x="104" y="112" xlink:href="#p" />
<use x="104" y="128" xlink:href="#p" />
<use x="104" y="136" xlink:href="#p" />
<use x="104" y="160" xlink:href="#p" />
<use x="104" y="176" xlink:href="#p" />
<use x="104" y="184" xlink:href="#p" />
<use x="104" y="192" xlink:href="#p" />
<use x="104" y="200" xlink:href="#p" />
<use x="112" y="32" xlink:href="#p" />
<use x="112" y="56" xlink:href="#p" />
<use x="112" y="64" xlink:href="#p" />
<use x="112" y="80" xlink:href="#p" />
<use x="112" y="104" xlink:href="#p" />
<use x="112" y="128" xlink:href="#p" />
<use x="112" y="136" xlink:href="#p" />
<use x="112" y="144" xlink:href="#p" />
<use x="112" y="160" xlink:href="#p" />
<use x="112" y="168" xlink:href="#p" />
<use x="112" y="176" xlink:href="#p" />
<use x="112" y="200" xlink:href="#p" />
<use x="112" y="224" xlink:href="#p" />
<use x="120" y="32" xlink:href="#p" />
<use x="120" y="40" xlink:href="#p" />
<use x="120" y="48" xlink:href="#p" />
<use x="120" y="56" xlink:href="#p" />
<use x="120" y="64" xlink:href="#p" />
<use x="120" y="72" xlink:href="#p" />
<use x="120" y="160" xlink:href="#p" />
<use x="120" y="168" xlink:href="#p" />
<use x="120" y="184" xlink:href="#p" />
<use x="120" y="192" xlink:href="#p" />
<use x="120" y="208" xlink:href="#p" />
<use x="120" y="216" xlink:href="#p" />
<use x="120" y="224" xlink:href="#p" />
<use x="128" y="40" xlink:href="#p" />
<use x="128" y="64" xlink:href="#p" />
<use x="128" y="80" xlink:href="#p" />
<use x="128" y="88" xlink:href="#p" />
<use x="128" y="96" xlink:href="#p" />
<use x="128" y="112" xlink:href="#p" />
<use x="128" y="136" xlink:href="#p" />
<use x="128" y="152" xlink:href="#p" />
<use x="128" y="160" xlink:href="#p" />
<use x="128" y="176" xlink:href="#p" />
<use x="128" y="200" xlink:href="#p" />
<use x="128" y="216" xlink:href="#p" />
<use x="128" y="224" xlink:href="#p" />
<use x="136" y="48" xlink:href="#p" />
<use x="136" y="56" xlink:href="#p" />
<use x="136" y="64" xlink:href="#p" />
<use x="136" y="88" xlink:href="#p" />
<use x="136" y="96" xlink:href="#p" />
<use x="136" y="104" xlink:href="#p" />
<use x="136" y="128" xlink:href="#p" />
<use x="136" y="136" xlink:href="#p" />
<use x="136" y="184" xlink:href="#p" />
<use x="136" y="192" xlink:href="#p" />
<use x="136" y="200" xlink:href="#p" />
<use x="136" y="208" xlink:href="#p" />
<use x="136" y="216" xlink:href="#p" />
<use x="136" y="224" xlink:href="#p" />
<use x="144" y="32" xlink:href="#p" />
<use x="144" y="48" xlink:href="#p" />
<use x="144" y="80" xlink:href="#p" />
<use x="144" y="96" xlink:href="#p" />
<use x="144" y="112" xlink:href="#p" />
<use x="144" y="120" xlink:href="#p" />
<use x="144" y="136" xlink:href="#p" />
<use x="144" y="176" xlink:href="#p" />
<use x="144" y="200" xlink:href="#p" />
<use x="152" y="48" xlink:href="#p" />
<use x="152" y="64" xlink:href="#p" />
<use x="152" y="88" xlink:href="#p" />
<use x="152" y="96" xlink:href="#p" />
<use x="152" y="104" xlink:href="#p" />
<use x="152" y="112" xlink:href="#p" />
<use x="152" y="120" xlink:href="#p" />
<use x="152" y="136" xlink:href="#p" />
<use x="152" y="144" xlink:href="#p" />
<use x="152" y="168" xlink:href="#p" />
<use x="152" y="184" xlink:href="#p" />
<use x="152" y="192" xlink:href="#p" />
<use x="160" y="40" xlink:href="#p" />
<use x="160" y="64" xlink:href="#p" />
<use x="160" y="72" xlink:href="#p" />
<use x="160" y="80" xlink:href="#p" />
<use x="160" y="104" xlink:href="#p" />
<use x="160" y="112" xlink:href="#p" />
<use x="160" y="128" xlink:href="#p" />
<use x="160" y="152" xlink:href="#p" />
<use x="160" y="160" xlink:href="#p" />
<use x="160" y="168" xlink:href="#p" />
<use x="160" y="176" xlink:href="#p" />
<use x="160" y="184" xlink:href="#p" />
<use x="160" y="192" xlink:href="#p" />
<use x="160" y="200" xlink:href="#p" />
<use x="160" y="208" xlink:href="#p" />
<use x="160" y="224" xlink:href="#p" />
<use x="168" y="112" xlink:href="#p" />
<use x="168" y="136" xlink:href="#p" />
<use x="168" y="144" xlink:href="#p" />
<use x="168" y="160" xlink:href="#p" />
<use x="168" y="192" xlink:href="#p" />
<use x="168" y="208" xlink:href="#p" />
<use x="168" y="224" xlink:href="#p" />
<use x="176" y="32" xlink:href="#p" />
<use x="176" y="40" xlink:href="#p" />
<use x="176" y="48" xlink:href="#p" />
<use x="176" y="56" xlink:href="#p" />
<use x="176" y="64" xlink:href="#p" />
<use x="176" y="72" xlink:href="#p" />
<use x="176" y="80" xlink:href="#p" />
<use x="176" y="96" xlink:href="#p" />
<use x="176" y="120" xlink:href="#p" />
<use x="176" y="128" xlink:href="#p" />
<use x="176" y="144" xlink:href="#p" />
<use x="176" y="152" xlink:href="#p" />
<use x="176" y="160" xlink:href="#p" />
<use x="176" y="176" xlink:href="#p" />
<use x="176" y="192" xlink:href="#p" />
<use x="176" y="200" xlink:href="#p" />
<use x="184" y="32" xlink:href="#p" />
<use x="184" y="80" xlink:href="#p" />
<use x="184" y="104" xlink:href="#p" />
<use x="184" y="128" xlink:href="#p" />
<use x="184" y="152" xlink:href="#p" />
<use x="184" y="160" xlink:href="#p" />
<use x="184" y="192" xlink:href="#p" />
<use x="184" y="216" xlink:href="#p" />
<use x="192" y="32" xlink:href="#p" />
<use x="192" y="48" xlink:href="#p" />
<use x="192" y="56" xlink:href="#p" />
<use x="192" y="64" xlink:href="#p" />
<use x="192" y="80" xlink:href="#p" />
<use x="192" y="104" xlink:href="#p" />
<use x="192" y="136" xlink:href="#p" />
<use x="192" y="144" xlink:href="#p" />
<use x="192" y="160" xlink:href="#p" />
<use x="192" y="168" xlink:href="#p" />
<use x="192" y="176" xlink:href="#p" />
<use x="192" y="184" xlink:href="#p" />
<use x="192" y="192" xlink:href="#p" />
<use x="192" y="208" xlink:href="#p" />
<use x="192" y="216" xlink:href="#p" />
<use x="200" y="32" xlink:href="#p" />
<use x="200" y="48" xlink:href="#p" />
<use x="200" y="56" xlink:href="#p" />
<use x="200" y="64" xlink:href="#p" />
<use x="200" y="80" xlink:href="#p" />
<use x="200" y="104" xlink:href="#p" />
<use x="200" y="112" xlink:href="#p" />
<use x="200" y="120" xlink:href="#p" />
<use x="200" y="144" xlink:href="#p" />
<use x="200" y="152" xlink:href="#p" />
<use x="200" y="208" xlink:href="#p" />
<use x="200" y="224" xlink:href="#p" />
<use x="208" y="32" xlink:href="#p" />
<use x="208" y="48" xlink:href="#p" />
<use x="208" y="56" xlink:href="#p" />
<use x="208" y="64" xlink:href="#p" />
<use x="208" y="80" xlink:href="#p" />
<use x="208" y="104" xlink:href="#p" />
<use x="208" y="120" xlink:href="#p" />
<use x="208" y="144" xlink:href="#p" />
<use x="208" y="152" xlink:href="#p" />
<use x="208" y="160" xlink:href="#p" />
<use x="208" y="168" xlink:href="#p" />
<use x="208" y="208" xlink:href="#p" />
<use x="208" y="216" xlink:href="#p" />
<use x="216" y="32" xlink:href="#p" />
<use x="216" y="80" xlink:href="#p" />
<use x="216" y="104" xlink:href="#p" />
<use x="216" y="120" xlink:href="#p" />
<use x="216" y="136" xlink:href="#p" />
<use x="216" y="144" xlink:href="#p" />
<use x="216" y="160" xlink:href="#p" />
<use x="216" y="168" xlink:href="#p" />
<use x="216" y="192" xlink:href="#p" />
<use x="216" y="200" xlink:href="#p" />
<use x="216" y="208" xlink:href="#p" />
<use x="216" y="216" xlink:href="#p" />
<use x="224" y="32" xlink:href="#p" />
<use x="224" y="40" xlink:href="#p" />
<use x="224" y="48" xlink:href="#p" />
<use x="224" y="56" xlink:href="#p" />
<use x="224" y="64" xlink:href="#p" />
<use x="224" y="72" xlink:href="#p" />
<use x="224" y="80" xlink:href="#p" />
<use x="224" y="96" xlink:href="#p" />
<use x="224" y="112" xlink:href="#p" />
<use x="224" y="120" xlink:href="#p" />
<use x="224" y="128" xlink:href="#p" />
<use x="224" y="144" xlink:href="#p" />
<use x="224" y="152" xlink:href="#p" />
<use x="224" y="176" xlink:href="#p" />
<use x="224" y="192" xlink:href="#p" />
<use x="224" y="200" xlink:href="#p" />
<use x="224" y="208" xlink:href="#p" />
<use x="224" y="216" xlink:href="#p" />
<use x="224" y="224" xlink:href="#p" />
</g>
</svg>